name rise30.8019peak61.5557fall86.2505.mot
datacolumns 19
datarows 17
range 12.97662400000000 13.00328800000000
endheader
time	ground_force1_vx	ground_force1_vy	ground_force1_vz	ground_force1_px	ground_force1_py	ground_force1_pz	ground_force2_vx	ground_force2_vy	ground_force2_vz	ground_force2_px	ground_force2_py	ground_force2_pz	ground_torque1_x	ground_torque1_y	ground_torque1_z	ground_torque2_x	ground_torque2_y	ground_torque2_z	
12.97662400000000	-50.45850000000000	774.48701600000004	43.29896900000000	0.00234500000000	0.00000000000000	0.09747200000000	-10.63016100000000	33.00078100000000	6.77036500000000	0.27836600000000	0.00000000000000	-0.06672900000000	0.00000000000000	11.46771800000000	0.00000000000000	0.00000000000000	2.54847500000000	0.00000000000000	
12.97828300000000	-50.61355500000000	772.06738900000005	43.01994800000000	0.00185600000000	0.00000000000000	0.09746400000000	-12.13035600000000	39.09072100000000	7.85172300000000	0.28263800000000	0.00000000000000	-0.06665500000000	0.00000000000000	11.40990600000000	0.00000000000000	0.00000000000000	3.02322600000000	0.00000000000000	
12.97995400000000	-50.78798000000000	769.59120299999995	42.72236700000000	0.00137500000000	0.00000000000000	0.09745100000000	-13.50094100000000	45.21077900000000	8.88617900000000	0.28660500000000	0.00000000000000	-0.06659900000000	0.00000000000000	11.35765500000000	0.00000000000000	0.00000000000000	3.49591700000000	0.00000000000000	
12.98162300000000	-50.98259400000000	767.05951500000003	42.40641200000000	0.00090100000000	0.00000000000000	0.09743200000000	-14.70044900000000	51.24882900000000	9.84769300000000	0.29029600000000	0.00000000000000	-0.06656100000000	0.00000000000000	11.31112800000000	0.00000000000000	0.00000000000000	3.95528100000000	0.00000000000000	
12.98328800000000	-51.19816200000000	764.47324800000001	42.07229400000000	0.00043300000000	0.00000000000000	0.09740900000000	-15.69841400000000	57.11452500000000	10.71600300000000	0.29373700000000	0.00000000000000	-0.06653800000000	0.00000000000000	11.27047000000000	0.00000000000000	0.00000000000000	4.39180800000000	0.00000000000000	
12.98495400000000	-51.43539000000000	761.83319200000005	41.72024500000000	-0.00002900000000	0.00000000000000	0.09738000000000	-16.47644600000000	62.74353200000000	11.47742900000000	0.29695000000000	0.00000000000000	-0.06653200000000	0.00000000000000	11.23581100000000	0.00000000000000	0.00000000000000	4.79821200000000	0.00000000000000	
12.98662100000000	-51.69491900000000	759.13999400000000	41.35051900000000	-0.00048600000000	0.00000000000000	0.09734600000000	-17.02814800000000	68.09896900000000	12.12499700000000	0.29995300000000	0.00000000000000	-0.06653900000000	0.00000000000000	11.20726200000000	0.00000000000000	0.00000000000000	5.16965700000000	0.00000000000000	
12.98828400000000	-51.97732300000000	756.39414899999997	40.96339400000000	-0.00093800000000	0.00000000000000	0.09730600000000	-17.35807200000000	73.17035199999999	12.65800900000000	0.30276300000000	0.00000000000000	-0.06656100000000	0.00000000000000	11.18491600000000	0.00000000000000	0.00000000000000	5.50373600000000	0.00000000000000	
12.98995800000000	-52.28310400000000	753.59599800000001	40.55916300000000	-0.00138500000000	0.00000000000000	0.09726200000000	-17.47994400000000	77.97054799999999	13.08116200000000	0.30539400000000	0.00000000000000	-0.06659600000000	0.00000000000000	11.16884800000000	0.00000000000000	0.00000000000000	5.80025200000000	0.00000000000000	
12.99162300000000	-52.61268700000000	750.74572100000000	40.13814000000000	-0.00182900000000	0.00000000000000	0.09721100000000	-17.41443600000000	82.53131999999999	13.40337300000000	0.30785700000000	0.00000000000000	-0.06664300000000	0.00000000000000	11.15911400000000	0.00000000000000	0.00000000000000	6.06085600000000	0.00000000000000	
12.99329100000000	-52.96641800000000	747.84333200000003	39.70065900000000	-0.00226900000000	0.00000000000000	0.09715600000000	-17.18674800000000	86.89809000000000	13.63647000000000	0.31016500000000	0.00000000000000	-0.06670200000000	0.00000000000000	11.15575000000000	0.00000000000000	0.00000000000000	6.28858600000000	0.00000000000000	
12.99495300000000	-53.34455700000000	744.88868000000002	39.24706500000000	-0.00270700000000	0.00000000000000	0.09709500000000	-16.82423000000000	91.12448700000000	13.79385900000000	0.31232500000000	0.00000000000000	-0.06677300000000	0.00000000000000	11.15877400000000	0.00000000000000	0.00000000000000	6.48737700000000	0.00000000000000	
12.99661800000000	-53.74728000000000	741.88144100000000	38.77772400000000	-0.00314300000000	0.00000000000000	0.09702800000000	-16.35423300000000	95.26715500000000	13.88929900000000	0.31434700000000	0.00000000000000	-0.06685500000000	0.00000000000000	11.16818300000000	0.00000000000000	0.00000000000000	6.66158000000000	0.00000000000000	
12.99829000000000	-54.17466900000000	738.82111999999995	38.29301300000000	-0.00357800000000	0.00000000000000	0.09695600000000	-15.80231700000000	99.38119700000000	13.93585700000000	0.31623800000000	0.00000000000000	-0.06694700000000	0.00000000000000	11.18395300000000	0.00000000000000	0.00000000000000	6.81552600000000	0.00000000000000	
12.99995100000000	-54.62671300000000	735.70704699999999	37.79332200000000	-0.00401300000000	0.00000000000000	0.09687900000000	-15.19089900000000	103.51649999999999	13.94509000000000	0.31800500000000	0.00000000000000	-0.06705000000000	0.00000000000000	11.20604400000000	0.00000000000000	0.00000000000000	6.95317600000000	0.00000000000000	
13.00162300000000	-55.10330500000000	732.53838299999995	37.27905800000000	-0.00444800000000	0.00000000000000	0.09679700000000	-14.53836400000000	107.71506700000000	13.92648400000000	0.31965300000000	0.00000000000000	-0.06716200000000	0.00000000000000	11.23439100000000	0.00000000000000	0.00000000000000	7.07785000000000	0.00000000000000	
13.00328800000000	-55.60423800000000	729.31411400000002	36.75063300000000	-0.00488300000000	0.00000000000000	0.09670900000000	-13.85863100000000	112.00939600000000	13.88714900000000	0.32118800000000	0.00000000000000	-0.06728400000000	0.00000000000000	11.26891300000000	0.00000000000000	0.00000000000000	7.19206300000000	0.00000000000000	
